<?xml version="1.0" encoding="utf-8"?>
<!-- Generator: Adobe Illustrator 27.5.0, SVG Export Plug-In . SVG Version: 6.00 Build 0)  -->
<svg version="1.1" id="Layer_1" xmlns="http://www.w3.org/2000/svg" xmlns:xlink="http://www.w3.org/1999/xlink" x="0px" y="0px"
	 viewBox="0 0 1440 1440" style="enable-background:new 0 0 1440 1440;" xml:space="preserve">
<path style="opacity:0.84;fill-rule:evenodd;clip-rule:evenodd;fill:#E6E7E8;" d="M720,879.206
	c87.827,0,159.024,2.507,159.024,5.599c0,3.093-71.197,5.6-159.024,5.6c-87.827,0-159.024-2.507-159.024-5.6
	C560.976,881.713,632.173,879.206,720,879.206"/>
<path style="fill:#43525A;" d="M1079.996,1015.499h-49.771c-12.808,0-23.402-4.255-31.784-12.766
	c-8.381-8.51-12.571-19.255-12.571-32.235c0-12.894,4.148-23.296,12.442-31.204c8.296-7.908,18.933-11.862,31.913-11.862h49.771
	v15.344h-49.771c-8.425,0-15.365,2.708-20.824,8.123c-5.458,5.416-8.188,12.379-8.188,20.889c0,8.425,2.729,15.259,8.188,20.502
	c5.459,5.244,12.399,7.865,20.824,7.865h49.771V1015.499z M967.172,1015.499h-15.344v-88.067h15.344V1015.499z M938.935,942.775
	h-34.686v72.724h-15.215v-72.724h-34.813v-15.344h84.714V942.775z M846.226,988.292c0,8.338-2.965,15.043-8.896,20.115
	c-5.674,4.728-12.765,7.092-21.275,7.092h-67.178v-15.345h67.178c4.212,0,7.865-0.945,10.96-2.836
	c3.524-2.321,5.286-5.459,5.286-9.413s-1.805-7.006-5.415-9.155c-3.009-1.805-6.619-2.707-10.831-2.707h-41.518
	c-7.651,0-14.055-2.107-19.213-6.318c-5.501-4.556-8.252-10.573-8.252-18.052c0-7.393,2.751-13.367,8.252-17.923
	c5.158-4.213,11.562-6.318,19.213-6.318h66.404v15.344h-66.404c-2.923,0-5.416,0.816-7.479,2.45
	c-2.063,1.633-3.095,3.825-3.095,6.576c0,2.837,1.031,5.028,3.095,6.576c2.063,1.547,4.556,2.32,7.479,2.32h41.518
	c8.511,0,15.602,2.45,21.275,7.35C843.261,973.206,846.226,979.954,846.226,988.292z M731.211,1015.499h-15.344v-88.067h15.344
	V1015.499z M702.973,942.775h-34.685v72.724h-15.215v-72.724h-34.814v-15.344h84.714V942.775z M641.339,1015.499l-19.728-0.129
	l-14.828-24.628h-41.777l9.284-15.215h23.338l-15.344-25.402l-39.713,65.245h-19.729l47.837-79.558
	c1.203-2.063,2.879-3.954,5.028-5.673c2.579-1.977,4.9-2.966,6.963-2.966c2.235,0,4.556,0.945,6.962,2.837
	c2.063,1.633,3.739,3.567,5.029,5.802L641.339,1015.499z M545.922,942.775h-34.685v72.724h-15.215v-72.724h-34.814v-15.344h84.714
	V942.775z M453.214,988.292c0,8.338-2.966,15.043-8.897,20.115c-5.673,4.728-12.765,7.092-21.275,7.092h-67.178v-15.345h67.178
	c4.212,0,7.865-0.945,10.96-2.836c3.524-2.321,5.287-5.459,5.287-9.413s-1.805-7.006-5.416-9.155
	c-3.009-1.805-6.619-2.707-10.831-2.707h-41.519c-7.651,0-14.055-2.107-19.212-6.318c-5.501-4.556-8.252-10.573-8.252-18.052
	c0-7.393,2.75-13.367,8.252-17.923c5.158-4.213,11.562-6.318,19.212-6.318h66.404v15.344h-66.404c-2.923,0-5.415,0.816-7.478,2.45
	c-2.063,1.633-3.095,3.825-3.095,6.576c0,2.837,1.032,5.028,3.095,6.576c2.063,1.547,4.556,2.32,7.478,2.32h41.519
	c8.51,0,15.602,2.45,21.275,7.35C450.248,973.206,453.214,979.954,453.214,988.292z"/>
<path style="fill:#939598;" d="M893.255,1080v-41.683h25.443v4.992H899.09v12.391h17.442v4.872H899.09v14.435h21.112V1080H893.255z
	 M866.971,1043.009c-2.486,0-4.391,0.06-5.714,0.181v15.698h4.15c2.005,0,3.81-0.101,5.413-0.301c1.604-0.2,2.957-0.581,4.06-1.143
	c1.104-0.562,1.955-1.354,2.557-2.376c0.602-1.022,0.902-2.376,0.902-4.06c0-1.564-0.301-2.867-0.902-3.91
	c-0.601-1.042-1.413-1.864-2.435-2.466c-1.023-0.602-2.226-1.022-3.609-1.264C870.008,1043.129,868.534,1043.009,866.971,1043.009z
	 M875.813,1062.557c0.642,0.802,1.453,1.854,2.437,3.158c0.982,1.303,1.995,2.746,3.037,4.33s2.075,3.238,3.098,4.962
	c1.022,1.725,1.894,3.389,2.616,4.993h-6.376c-0.802-1.523-1.674-3.068-2.616-4.632c-0.942-1.563-1.894-3.058-2.857-4.481
	c-0.962-1.423-1.914-2.756-2.857-3.999c-0.942-1.243-1.794-2.326-2.557-3.248c-0.521,0.04-1.052,0.06-1.594,0.06
	c-0.541,0-1.093,0-1.654,0h-5.232V1080h-5.834v-41.081c1.644-0.401,3.479-0.672,5.503-0.813c2.025-0.141,3.88-0.21,5.563-0.21
	c5.854,0,10.315,1.103,13.384,3.308c3.067,2.205,4.601,5.493,4.601,9.864c0,2.767-0.731,5.133-2.195,7.098
	C880.814,1060.131,878.66,1061.595,875.813,1062.557z M821.078,1080v-41.683h25.442v4.992h-19.608v12.391h17.443v4.872h-17.443
	v14.435h21.112V1080H821.078z M804.898,1038.317h5.834V1080h-5.834v-19.247h-20.39V1080h-5.835v-41.683h5.835v17.383h20.39V1038.317
	z M730.435,1080v-41.683h25.442v4.992h-19.608v12.391h17.443v4.872h-17.443v14.435h21.112V1080H730.435z M715.218,1080
	c-0.882-1.484-1.895-3.148-3.038-4.993c-1.143-1.844-2.376-3.759-3.699-5.743c-1.323-1.985-2.696-4-4.12-6.045
	c-1.423-2.045-2.837-4.021-4.24-5.925c-1.403-1.905-2.767-3.699-4.09-5.384c-1.323-1.684-2.546-3.168-3.669-4.45V1080h-5.714
	v-41.683h4.632c1.884,2.005,3.899,4.341,6.044,7.007c2.146,2.667,4.271,5.413,6.376,8.24c2.105,2.827,4.09,5.604,5.955,8.331
	c1.864,2.727,3.438,5.152,4.721,7.277v-30.855h5.714V1080H715.218z M670.468,1038.317h5.834V1080h-5.834V1038.317z
	 M664.333,1074.947V1080h-25.081v-41.683h5.834v36.63H664.333z M624.275,1059.489h5.834v19.488c-0.482,0.16-1.173,0.341-2.075,0.541
	c-0.902,0.2-1.945,0.401-3.128,0.602c-1.183,0.2-2.476,0.371-3.879,0.511c-1.403,0.141-2.827,0.211-4.271,0.211
	c-2.927,0-5.593-0.481-8-1.443c-2.406-0.963-4.471-2.366-6.195-4.211c-1.725-1.844-3.058-4.109-4-6.796
	c-0.942-2.687-1.414-5.774-1.414-9.264c0-3.488,0.531-6.586,1.594-9.293c1.063-2.706,2.497-4.981,4.301-6.826
	c1.804-1.845,3.919-3.248,6.346-4.21c2.426-0.963,5.022-1.444,7.789-1.444c1.884,0,3.559,0.12,5.022,0.361
	c1.464,0.24,2.717,0.521,3.759,0.842s1.894,0.642,2.557,0.963c0.662,0.32,1.112,0.561,1.353,0.722l-1.865,4.871
	c-1.163-0.761-2.707-1.393-4.631-1.895c-1.925-0.501-3.889-0.752-5.895-0.752c-2.125,0-4.06,0.382-5.804,1.144
	c-1.745,0.762-3.228,1.864-4.451,3.308c-1.223,1.444-2.175,3.198-2.857,5.264c-0.682,2.064-1.022,4.381-1.022,6.946
	c0,2.486,0.29,4.752,0.872,6.797c0.582,2.045,1.463,3.8,2.647,5.263c1.183,1.464,2.646,2.597,4.391,3.398
	c1.745,0.803,3.8,1.203,6.165,1.203c1.684,0,3.118-0.09,4.301-0.271c1.183-0.181,2.035-0.351,2.556-0.512V1059.489z
	 M581.33,1064.541c-1.283-3.488-2.556-6.866-3.819-10.134c-1.263-3.269-2.576-6.406-3.94-9.414c-1.403,3.008-2.737,6.146-4,9.414
	c-1.263,3.268-2.516,6.646-3.759,10.134H581.33z M586.803,1080c-0.682-1.805-1.323-3.579-1.925-5.323
	c-0.602-1.744-1.223-3.519-1.865-5.323h-18.886L560.338,1080h-6.075c1.604-4.411,3.107-8.491,4.511-12.24
	c1.403-3.749,2.777-7.308,4.12-10.677c1.343-3.368,2.677-6.586,4-9.653c1.323-3.067,2.707-6.105,4.15-9.112h5.353
	c1.444,3.007,2.827,6.045,4.15,9.112c1.323,3.067,2.656,6.285,4,9.653c1.343,3.369,2.716,6.928,4.12,10.677
	c1.403,3.749,2.907,7.829,4.511,12.24H586.803z M552.82,1038.317v5.052h-13.112V1080h-5.834v-36.631h-13.112v-5.052H552.82z"/>
<g id="Layer_2">
	<path style="fill-rule:evenodd;clip-rule:evenodd;fill:#647883;" d="M566.762,458.737c-49.293,2.933-87.039,20.16-103.48,51.83
		c-37.019,71.311,47.928,188.825,189.697,262.42c141.768,73.594,286.759,75.448,323.778,4.136
		c17.711-34.118,7.5-78.813-23.494-124.213c3.888,19.005,17.341,46.64-0.44,84.78c-32.756,63.1-161.049,61.459-286.491-3.66
		C540.89,668.911,465.725,564.93,498.48,501.832C510.315,479.035,534.626,464.692,566.762,458.737"/>
	<path style="fill-rule:evenodd;clip-rule:evenodd;fill:#FFFFFF;" d="M873.896,448.171c42.78,2.546,91.042,16.676,112.245,57.52
		c24.36,46.925-0.386,102.373-28.62,141.431c-40.971,56.678-104.017,103.293-165.595,135.26
		c-61.578,31.966-135.981,56.704-205.912,57.598c-48.191,0.616-107.777-11.053-132.138-57.979
		c-1.802-3.472-3.364-7.065-4.673-10.752c-20.475-57.639,22.697-122.972,60.189-163.217l6.896-7.402l15.413,13.109l-6.199,7.995
		c-22.109,28.512-47.714,74.843-28.903,111.081c17.569,33.846,64.806,40.981,98.958,40.545
		c58.677-0.75,121.617-21.913,173.261-48.723c51.645-26.81,105.17-66.106,139.549-113.664
		c20.006-27.675,41.35-70.428,23.785-104.263c-11.74-22.616-36.981-33.147-60.815-37.564l-9.783-1.813l2.408-19.752L873.896,448.171
		z"/>
	<path style="fill-rule:evenodd;clip-rule:evenodd;fill:#939598;" d="M873.268,458.737c49.292,2.933,87.039,20.16,103.479,51.83
		c37.019,71.311-47.929,188.825-189.697,262.42c-141.768,73.594-286.759,75.448-323.778,4.136
		c-22.615-43.564,0.295-104.372,53.866-161.876c-34.418,44.387-47.232,89.118-29.932,122.444
		c32.756,63.1,161.049,61.459,286.491-3.66C899.14,668.911,974.305,564.93,941.549,501.832
		C929.714,479.035,905.403,464.692,873.268,458.737"/>
	<path style="fill-rule:evenodd;clip-rule:evenodd;fill:#FFCB05;" d="M803.683,704.716V405.66c0-8.4,6.794-15.233,15.213-15.233
		h30.428c8.401,0,15.214,6.833,15.214,15.233v253.48C845.729,676.106,824.949,691.397,803.683,704.716"/>
	<path style="fill-rule:evenodd;clip-rule:evenodd;fill:#D6992D;" d="M864.537,406.286V659.14
		c-6.556,5.913-13.351,11.623-20.322,17.117L864.537,406.286z"/>
	<path style="fill-rule:evenodd;clip-rule:evenodd;fill:#F58220;" d="M727.608,743.7V481.721c0-8.4,6.794-15.194,15.214-15.194
		l30.452,0.005c8.401,0,15.194,6.794,15.194,15.195v232.142c-6.551,3.783-13.114,7.375-19.648,10.767
		C755.725,731.434,741.903,737.869,727.608,743.7"/>
	<path style="fill-rule:evenodd;clip-rule:evenodd;fill:#C85D2E;" d="M788.469,481.727v232.142
		c-6.551,3.783-13.114,7.375-19.648,10.767l-1.26,0.652L788.469,481.727z"/>
	<path style="fill-rule:evenodd;clip-rule:evenodd;fill:#00A651;" d="M651.56,713.869V375.233c0-8.401,6.794-15.233,15.194-15.233
		h30.447c8.419,0,15.213,6.832,15.213,15.233v368.465c-14.292-5.831-28.112-12.265-41.206-19.063
		C664.675,721.244,658.111,717.652,651.56,713.869"/>
	<path style="fill-rule:evenodd;clip-rule:evenodd;fill:#118949;" d="M712.415,376.908v366.79
		c-6.515-2.658-12.932-5.441-19.226-8.327L712.415,376.908z"/>
	<path style="fill-rule:evenodd;clip-rule:evenodd;fill:#0095DA;" d="M575.493,659.14V436.105c0-8.402,6.793-15.233,15.194-15.233
		h30.447c8.419,0,15.213,6.832,15.213,15.233v268.611C615.08,691.397,594.3,676.106,575.493,659.14"/>
	<path style="fill-rule:evenodd;clip-rule:evenodd;fill:#006BA0;" d="M636.347,436.105v268.611
		c-6.233-3.904-12.425-7.977-18.537-12.212L636.347,436.105z"/>
</g>
</svg>
