<?xml version="1.0" encoding="utf-8"?>
<!-- Generator: Adobe Illustrator 27.5.0, SVG Export Plug-In . SVG Version: 6.00 Build 0)  -->
<svg version="1.1" id="Camada_1" xmlns="http://www.w3.org/2000/svg" xmlns:xlink="http://www.w3.org/1999/xlink" x="0px" y="0px"
	 viewBox="0 0 1300 1300" style="enable-background:new 0 0 1300 1300;" xml:space="preserve">
<g>
	<g>
		<linearGradient id="SVGID_1_" gradientUnits="userSpaceOnUse" x1="469.9732" y1="429.0135" x2="737.8959" y2="429.0135">
			<stop  offset="0" style="stop-color:#F04E23"/>
			<stop  offset="1" style="stop-color:#FFD400"/>
		</linearGradient>
		<path style="fill:url(#SVGID_1_);" d="M737.896,333.05c-31.109-35.616-63.949-69.718-98.415-102.101
			c-14.018,134.422-80.83,275.834-169.508,396.129C578.58,549.366,670.737,448.434,737.896,333.05z"/>
		
			<linearGradient id="SVGID_00000070079684403431414290000016854124440317519495_" gradientUnits="userSpaceOnUse" x1="622.927" y1="820.7856" x2="622.927" y2="542.8551">
			<stop  offset="0" style="stop-color:#ED1C24"/>
			<stop  offset="1" style="stop-color:#F68B1F"/>
		</linearGradient>
		<path style="fill:url(#SVGID_00000070079684403431414290000016854124440317519495_);" d="M940.244,632.971
			c-15.513-30.613-32.114-60.675-49.753-90.116c-62.774,61.517-139.22,109.843-219.449,146.64
			c-116.259,53.323-241.23,84.422-365.423,115.067c-1.341,1.137,158.879,17.66,240.579,16.122
			c79.283-11.949,156.677-36.509,228.167-72.82C834.522,717.31,890.417,678.462,940.244,632.971z"/>
		
			<linearGradient id="SVGID_00000022524745845891141940000004552741706496870333_" gradientUnits="userSpaceOnUse" x1="546.1975" y1="726.8276" x2="994.3896" y2="726.8276">
			<stop  offset="0" style="stop-color:#9E0B0F"/>
			<stop  offset="1" style="stop-color:#F04E23"/>
		</linearGradient>
		<path style="fill:url(#SVGID_00000022524745845891141940000004552741706496870333_);" d="M940.244,632.971
			c-49.827,45.492-105.721,84.339-165.879,114.894c-71.491,36.311-148.884,60.87-228.167,72.82
			c151.492-2.852,302.62-25.491,448.192-67.54C978.195,712.282,960.111,672.175,940.244,632.971z"/>
		
			<linearGradient id="SVGID_00000075146251778697582160000000666174404017425334_" gradientUnits="userSpaceOnUse" x1="348.3667" y1="549.5057" x2="822.5612" y2="549.5057">
			<stop  offset="0" style="stop-color:#F04E23"/>
			<stop  offset="1" style="stop-color:#F68B1F"/>
		</linearGradient>
		<path style="fill:url(#SVGID_00000075146251778697582160000000666174404017425334_);" d="M737.896,333.05
			C670.737,448.434,578.58,549.366,469.973,627.078c-37.417,50.758-78.727,97.757-121.606,138.883
			c186.7-55.95,355.158-171.999,474.194-326.319C796.022,402.815,767.756,367.236,737.896,333.05z"/>
	</g>
	<g>
		<g>
			<path style="fill:#231F20;" d="M329.502,867.672h23.42l25.96,41.761l25.96-41.761h23.42v98.76h-21.586v-64.475l-27.794,42.184
				h-0.565l-27.512-41.761v64.053h-21.304V867.672z"/>
			<path style="fill:#231F20;" d="M447.594,917.335v-0.282c0-28.076,22.15-51.073,52.625-51.073
				c30.474,0,52.342,22.715,52.342,50.79v0.283c0,28.076-22.15,51.073-52.625,51.073
				C469.462,968.125,447.594,945.411,447.594,917.335z M529.846,917.335v-0.282c0-16.93-12.415-31.039-29.91-31.039
				c-17.494,0-29.628,13.826-29.628,30.756v0.283c0,16.931,12.416,31.039,29.91,31.039
				C517.713,948.091,529.846,934.265,529.846,917.335z"/>
			<path style="fill:#231F20;" d="M571.892,867.672h38.517c31.039,0,52.484,21.304,52.484,49.097v0.283
				c0,27.794-21.445,49.38-52.484,49.38h-38.517V867.672z M610.409,946.821c17.776,0,29.769-11.993,29.769-29.487v-0.282
				c0-17.495-11.993-29.769-29.769-29.769H593.62v59.538H610.409z"/>
			<path style="fill:#231F20;" d="M682.224,867.672h74.494v19.329h-52.907v20.034h46.559v19.329h-46.559v20.74h53.613v19.328
				h-75.199V867.672z"/>
			<path style="fill:#231F20;" d="M776.755,867.672h45.147c12.556,0,22.291,3.527,28.781,10.017
				c5.503,5.502,8.465,13.262,8.465,22.574v0.282c0,15.943-8.606,25.96-21.163,30.616l24.126,35.271h-25.395l-21.163-31.604h-17.071
				v31.604h-21.727V867.672z M820.491,915.642c10.581,0,16.648-5.643,16.648-13.967v-0.283c0-9.311-6.49-14.109-17.071-14.109
				h-21.586v28.359H820.491z"/>
			<path style="fill:#231F20;" d="M878.761,867.672h20.034l46.276,60.808v-60.808h21.445v98.76h-18.483l-47.828-62.783v62.783
				h-21.444V867.672z"/>
		</g>
		<g>
			<path style="fill:#F37021;" d="M329.641,1046.085v9.288h-4.138v-61.637h4.138v28.201c3.715-5.657,9.204-10.638,17.731-10.638
				c10.386,0,20.94,8.358,20.94,22.375v0.168c0,14.017-10.554,22.544-20.94,22.544
				C338.76,1056.386,333.187,1051.489,329.641,1046.085z M363.837,1034.011v-0.169c0-11.314-7.853-18.576-16.887-18.576
				c-8.951,0-17.562,7.515-17.562,18.491v0.168c0,11.061,8.612,18.491,17.562,18.491
				C356.322,1052.418,363.837,1045.579,363.837,1034.011z"/>
			<path style="fill:#F37021;" d="M380.389,1038.655v-26.344h4.137v25.584c0,8.865,4.982,14.692,13.678,14.692
				c8.444,0,14.945-6.417,14.945-15.368v-24.908h4.137v43.062h-4.137v-8.021c-2.871,5.066-7.684,9.035-15.536,9.035
				C386.721,1056.386,380.389,1048.956,380.389,1038.655z"/>
			<path style="fill:#F37021;" d="M429.279,1049.969l2.449-3.293c4.728,3.631,9.963,5.657,15.451,5.657
				c5.826,0,10.386-3.208,10.386-8.19v-0.169c0-5.066-5.404-6.923-11.399-8.612c-7.008-2.026-14.776-4.138-14.776-11.821v-0.169
				c0-6.923,5.826-11.905,14.185-11.905c5.151,0,10.976,1.858,15.283,4.728l-2.196,3.462c-3.968-2.618-8.697-4.305-13.256-4.305
				c-5.91,0-9.794,3.208-9.794,7.514v0.168c0,4.813,5.826,6.586,11.99,8.359c6.924,1.942,14.185,4.475,14.185,12.074v0.168
				c0,7.684-6.586,12.581-14.861,12.581C440.677,1056.217,433.838,1053.684,429.279,1049.969z"/>
			<path style="fill:#F37021;" d="M475.044,995.424h5.15v5.657h-5.15V995.424z M475.551,1012.311h4.138v43.062h-4.138V1012.311z"/>
			<path style="fill:#F37021;" d="M495.985,1012.311h4.137v8.022c2.871-5.066,7.684-9.034,15.536-9.034
				c10.892,0,17.225,7.43,17.225,17.731v26.344h-4.137v-25.584c0-8.865-4.982-14.691-13.679-14.691
				c-8.443,0-14.945,6.417-14.945,15.367v24.908h-4.137V1012.311z"/>
			<path style="fill:#F37021;" d="M544.79,1033.926v-0.168c0-12.496,8.781-22.459,20.433-22.459
				c12.074,0,19.758,9.794,19.758,22.543c0,0.76,0,1.013-0.085,1.689h-35.716c0.76,10.724,8.443,16.972,16.887,16.972
				c6.67,0,11.23-2.955,14.776-6.755l2.871,2.533c-4.391,4.728-9.541,8.106-17.816,8.106
				C554.585,1056.386,544.79,1047.352,544.79,1033.926z M580.506,1031.816c-0.591-8.697-5.572-16.718-15.451-16.718
				c-8.528,0-15.114,7.177-15.874,16.718H580.506z"/>
			<path style="fill:#F37021;" d="M593.343,1049.969l2.449-3.293c4.728,3.631,9.964,5.657,15.452,5.657
				c5.826,0,10.386-3.208,10.386-8.19v-0.169c0-5.066-5.404-6.923-11.399-8.612c-7.008-2.026-14.776-4.138-14.776-11.821v-0.169
				c0-6.923,5.827-11.905,14.185-11.905c5.151,0,10.977,1.858,15.283,4.728l-2.196,3.462c-3.969-2.618-8.697-4.305-13.256-4.305
				c-5.911,0-9.795,3.208-9.795,7.514v0.168c0,4.813,5.826,6.586,11.99,8.359c6.924,1.942,14.185,4.475,14.185,12.074v0.168
				c0,7.684-6.585,12.581-14.86,12.581C604.742,1056.217,597.903,1053.684,593.343,1049.969z"/>
			<path style="fill:#F37021;" d="M634.466,1049.969l2.448-3.293c4.728,3.631,9.964,5.657,15.452,5.657
				c5.826,0,10.386-3.208,10.386-8.19v-0.169c0-5.066-5.404-6.923-11.399-8.612c-7.008-2.026-14.776-4.138-14.776-11.821v-0.169
				c0-6.923,5.827-11.905,14.185-11.905c5.151,0,10.977,1.858,15.283,4.728l-2.196,3.462c-3.969-2.618-8.697-4.305-13.256-4.305
				c-5.911,0-9.794,3.208-9.794,7.514v0.168c0,4.813,5.826,6.586,11.989,8.359c6.924,1.942,14.185,4.475,14.185,12.074v0.168
				c0,7.684-6.585,12.581-14.86,12.581C645.865,1056.217,639.026,1053.684,634.466,1049.969z"/>
			<path style="fill:#F37021;" d="M707.757,1044.312v-28.201h-6.249v-3.8h6.249v-13.762h4.137v13.762h15.114v3.8h-15.114v27.779
				c0,6.163,3.631,8.359,8.613,8.359c2.111,0,3.883-0.422,6.332-1.52v3.885c-2.195,1.013-4.306,1.519-7.007,1.519
				C713.161,1056.133,707.757,1052.503,707.757,1044.312z"/>
			<path style="fill:#F37021;" d="M735.707,1042.877v-0.169c0-8.95,7.684-14.016,18.828-14.016c5.995,0,10.132,0.76,14.27,1.857
				v-1.857c0-8.697-5.32-13.172-14.185-13.172c-5.235,0-9.542,1.435-13.509,3.462l-1.52-3.63c4.728-2.196,9.372-3.716,15.283-3.716
				c5.826,0,10.469,1.604,13.594,4.728c2.87,2.871,4.391,6.84,4.391,12.159v26.851h-4.053v-7.177
				c-2.955,4.137-8.275,8.19-16.465,8.19C744.319,1056.386,735.707,1051.827,735.707,1042.877z M768.89,1039.246v-4.897
				c-3.631-0.929-8.443-1.942-14.607-1.942c-9.119,0-14.185,4.053-14.185,10.048v0.168c0,6.249,5.91,9.88,12.496,9.88
				C761.375,1052.503,768.89,1047.099,768.89,1039.246z"/>
			<path style="fill:#F37021;" d="M786.877,1062.465l2.448-3.377c5.15,3.969,11.061,6.079,17.394,6.079
				c9.879,0,16.887-5.657,16.887-16.717v-6.249c-3.716,5.32-9.457,9.963-17.985,9.963c-10.385,0-20.686-7.936-20.686-20.264v-0.168
				c0-12.412,10.301-20.433,20.686-20.433c8.613,0,14.438,4.559,17.985,9.625v-8.613h4.137v36.392
				c0,6.249-2.026,11.145-5.488,14.608c-3.716,3.714-9.288,5.741-15.621,5.741C799.457,1069.051,792.786,1066.856,786.877,1062.465z
				 M823.858,1031.816v-0.168c0-9.964-8.865-16.381-17.815-16.381c-9.035,0-16.634,6.249-16.634,16.297v0.168
				c0,9.71,7.768,16.465,16.634,16.465C814.993,1048.196,823.858,1041.61,823.858,1031.816z"/>
			<path style="fill:#F37021;" d="M844.041,993.736h4.137v61.637h-4.137V993.736z"/>
			<path style="fill:#F37021;" d="M864.559,995.424h5.151v5.657h-5.151V995.424z M865.066,1012.311h4.137v43.062h-4.137V1012.311z"
				/>
			<path style="fill:#F37021;" d="M885.499,1012.311h4.138v8.022c2.87-5.066,7.683-9.034,15.536-9.034
				c10.892,0,17.224,7.43,17.224,17.731v26.344h-4.137v-25.584c0-8.865-4.981-14.691-13.678-14.691
				c-8.443,0-14.945,6.417-14.945,15.367v24.908h-4.138V1012.311z"/>
			<path style="fill:#F37021;" d="M934.305,1033.926v-0.168c0-12.496,8.781-22.459,20.434-22.459
				c12.074,0,19.758,9.794,19.758,22.543c0,0.76,0,1.013-0.085,1.689h-35.715c0.76,10.724,8.443,16.972,16.887,16.972
				c6.67,0,11.229-2.955,14.775-6.755l2.871,2.533c-4.391,4.728-9.541,8.106-17.816,8.106
				C944.1,1056.386,934.305,1047.352,934.305,1033.926z M970.021,1031.816c-0.591-8.697-5.572-16.718-15.452-16.718
				c-8.528,0-15.113,7.177-15.873,16.718H970.021z"/>
		</g>
	</g>
</g>
</svg>
