<?xml version="1.0" encoding="utf-8"?>
<!-- Generator: Adobe Illustrator 27.5.0, SVG Export Plug-In . SVG Version: 6.00 Build 0)  -->
<svg version="1.1" id="Layer_1" xmlns="http://www.w3.org/2000/svg" xmlns:xlink="http://www.w3.org/1999/xlink" x="0px" y="0px"
	 viewBox="0 0 1300 1300" style="enable-background:new 0 0 1300 1300;" xml:space="preserve">
<g id="XMLID_6_">
	<g id="XMLID_1_">
		
			<linearGradient id="XMLID_00000109004218949724042620000012588006175439262103_" gradientUnits="userSpaceOnUse" x1="564.033" y1="748" x2="737.9947" y2="748">
			<stop  offset="0" style="stop-color:#000000"/>
			<stop  offset="0.9133" style="stop-color:#999999"/>
		</linearGradient>
		<path id="XMLID_15_" style="fill:url(#XMLID_00000109004218949724042620000012588006175439262103_);" d="M564.458,778
			l1.462-19.102c0.244-3.259,0.368-6.344,0.368-9.575c0-3.736-0.173-7.645-0.515-11.526L564.033,718h173.962l-1.739,19.899
			c-0.342,3.881-0.515,7.817-0.515,11.553c0,3.233,0.124,6.151,0.368,9.407L737.57,778H564.458z"/>
		
			<linearGradient id="XMLID_00000070099503131793186880000008283291320740987814_" gradientUnits="userSpaceOnUse" x1="564.0909" y1="321" x2="737.9368" y2="321">
			<stop  offset="0.0867" style="stop-color:#999999"/>
			<stop  offset="1" style="stop-color:#000000"/>
		</linearGradient>
		<path id="XMLID_14_" style="fill:url(#XMLID_00000070099503131793186880000008283291320740987814_);" d="M564.091,351l1.77-19.497
			c0.271-3.028,0.427-6.711,0.427-10.346c0-3.635-0.155-7.406-0.427-10.434L564.091,291h173.846l-1.769,19.793
			c-0.271,3.028-0.427,6.859-0.427,10.494c0,3.635,0.156,7.184,0.427,10.212L737.937,351H564.091z"/>
		
			<linearGradient id="XMLID_00000134241979257923475580000004541387084372342963_" gradientUnits="userSpaceOnUse" x1="864" y1="622.2861" x2="864" y2="448.2983">
			<stop  offset="0.0867" style="stop-color:#999999"/>
			<stop  offset="1" style="stop-color:#000000"/>
		</linearGradient>
		<path id="XMLID_13_" style="fill:url(#XMLID_00000134241979257923475580000004541387084372342963_);" d="M834,448.298
			l19.744,1.747c3.891,0.344,7.761,0.519,11.513,0.519c3.22,0,6.244-0.123,9.485-0.365L894,448.742v173.094l-19.257-1.455
			c-3.245-0.241-6.398-0.364-9.616-0.364c-3.753,0-7.554,0.175-11.443,0.519L834,622.286V448.298z"/>
		
			<linearGradient id="XMLID_00000077306213593620388440000017695590497464367510_" gradientUnits="userSpaceOnUse" x1="436" y1="622.2802" x2="436" y2="448.2977">
			<stop  offset="0" style="stop-color:#000000"/>
			<stop  offset="0.9133" style="stop-color:#999999"/>
		</linearGradient>
		<path id="XMLID_12_" style="fill:url(#XMLID_00000077306213593620388440000017695590497464367510_);" d="M406,448.298
			l19.507,1.747c3.892,0.345,7.643,0.519,11.395,0.519c3.218,0,6.422-0.123,9.667-0.365L466,448.745v173.092l-19.494-1.455
			c-3.245-0.241-6.516-0.364-9.734-0.364c-3.75,0-7.375,0.175-11.27,0.518L406,622.28V448.298z"/>
		
			<radialGradient id="XMLID_00000087383755766825145640000017969952089577014166_" cx="849.2295" cy="338.0952" r="139.3829" gradientUnits="userSpaceOnUse">
			<stop  offset="0.5102" style="stop-color:#FFF33E"/>
			<stop  offset="1" style="stop-color:#FBB040"/>
		</radialGradient>
		<path id="XMLID_10_" style="fill:url(#XMLID_00000087383755766825145640000017969952089577014166_);" d="M865.251,486.876
			c-4.814,0-9.767-0.676-14.717-1.113L847.041,485h-2.031c0,0-2.207,0.108-2.625,0.041L834,484.751v-0.822
			c-21-4.603-42.89-13.207-61.328-25.146l-0.285-0.181l-0.275-0.19c-16.9-11.841-31.21-26.565-43.743-44.44
			C715.031,395.224,706.103,374,702.272,351h-0.791L700,334.741c-0.368-4.114-0.571-8.849-0.571-13.584
			c0-4.735,0.203-9.557,0.571-13.671L701.481,291h61.314l-2.284,20.113c-0.26,2.423-0.512,5.726-0.512,10.061v1.222
			c0,4.041,0.113,7.531,0.749,10.234l0.271,0.888l0.15,0.905c6.175,47.123,42.982,84.391,89.665,90.978
			c2.832,0.057,5.528,0.284,7.939,0.488c2.338,0.197,4.552,0.384,6.473,0.384c3.111,0,6.138-0.27,9.223-0.546l19.53-1.772v61.199
			l-16.554,1.256C873.308,486.719,869.369,486.876,865.251,486.876z"/>
		
			<radialGradient id="XMLID_00000034781048200779361320000005630420393429644426_" cx="449.9723" cy="338.0948" r="143.4672" gradientUnits="userSpaceOnUse">
			<stop  offset="0.4694" style="stop-color:#FBB040"/>
			<stop  offset="1" style="stop-color:#F04E3E"/>
		</radialGradient>
		<path id="XMLID_4_" style="fill:url(#XMLID_00000034781048200779361320000005630420393429644426_);" d="M436.777,486.875
			c-4.815,0-9.518-0.222-14.469-0.659L406,484.751v-61.322l19.825,2.132c3.119,0.331,7.086,0.712,11.076,0.712
			c1.921,0,4.069-0.186,6.407-0.384c2.41-0.203,5.066-0.43,7.897-0.488c46.575-6.568,83.318-43.347,89.891-89.953
			c0.059-2.849,0.285-5.526,0.495-7.925c0.201-2.293,0.387-4.457,0.387-6.35c0-2.981-0.209-6.566-0.584-10.061L539.233,291h61.315
			l1.48,16.555c0.368,4.114,0.571,8.996,0.571,13.732c0,4.735-0.495,9.613-0.863,13.727L601,339.967v1.324
			c0,0,0.035,1.386,0.012,1.528L600.548,351h-0.78c-4.562,23-13.228,43.71-25.306,62.365l-0.18,0.417l-0.191,0.341
			c-12.118,17.296-26.98,32.209-44.174,44.255l-0.272,0.208l-0.29,0.189C510.347,471.082,489,479.855,466,484.344v0.813
			l-8.018,0.145L457.015,485h-1.054l-6.745,0.956C445.077,486.265,440.892,486.875,436.777,486.875z"/>
		
			<radialGradient id="XMLID_00000133504991507838260900000001342397035545228214_" cx="849.2295" cy="729.6649" r="140.719" gradientUnits="userSpaceOnUse">
			<stop  offset="0.4694" style="stop-color:#FBB040"/>
			<stop  offset="1" style="stop-color:#F04E3E"/>
		</radialGradient>
		<path id="XMLID_3_" style="fill:url(#XMLID_00000133504991507838260900000001342397035545228214_);" d="M701.157,778l-1.259-16.39
			c-0.311-4.156-0.469-8.154-0.469-12.288c0-4.794,0.22-9.775,0.655-14.711L701.543,718h0.855c3.898-23,12.776-43.274,25.972-61.821
			c12.073-17.216,26.375-31.417,43.695-43.563C790.598,599.43,811,590.63,834,586.728v-0.896l16.543-1.466
			c4.949-0.439,9.896-0.661,14.714-0.661c4.115,0,8.049,0.156,12.188,0.466L894,585.424v61.202l-19.528-2.047
			c-2.822-0.253-5.578-0.58-9.221-0.58h-1.918c-3.777,0-7.11,0.323-9.658,0.922l-0.888,0.345l-0.905,0.188
			c-47.208,6.187-84.498,43.491-90.68,90.669l-0.119,0.922l-0.333,0.896c-0.636,2.704-0.749,6.258-0.749,10.363v1.222
			c0,2.886,0.164,5.864,0.456,9.095l1.91,19.378H701.157z"/>
		
			<radialGradient id="XMLID_00000001638343809770496970000013134839957635874197_" cx="453.5589" cy="724.2419" r="135.9194" gradientUnits="userSpaceOnUse">
			<stop  offset="0.5102" style="stop-color:#FFF33E"/>
			<stop  offset="1" style="stop-color:#FBB040"/>
		</radialGradient>
		<path id="XMLID_2_" style="fill:url(#XMLID_00000001638343809770496970000013134839957635874197_);" d="M539.665,778l1.782-19.375
			c0.261-2.892,0.527-6.079,0.527-9.302c0-1.902-0.19-3.999-0.392-6.328c-0.21-2.418-0.443-5.066-0.502-7.914
			c-6.584-46.662-43.835-83.41-90.936-89.583l-0.905-0.107l-0.889-0.476c-2.543-0.598-5.866-0.915-9.631-0.915h-1.942
			c-4.694,0-7.9,0.419-10.95,0.745L406,647.156v-61.327l16.311-1.462c4.952-0.437,9.779-0.66,14.591-0.66
			c4.115,0,8.227,0.156,12.366,0.466L466,585.425v0.961c23,3.708,44.867,12.718,63.966,26.308
			c17.857,12.521,32.293,26.813,44.119,43.693l0.194,0.272l0.182,0.129C586.407,675.24,595.016,696,599.617,718h0.869l0.503,9.183
			c0.03,0.192,0.011,2.107,0.011,2.107v1.495l0.652,4.078c0.434,4.935,0.801,9.869,0.801,14.664c0,4.132-0.085,7.926-0.396,12.082
			L600.871,778H539.665z"/>
	</g>
	<g id="XMLID_49_">
		<path id="XMLID_50_" style="fill:#4D4D4D;" d="M332.711,843.916h19.734v70.425h34.567v16.51h-54.302V843.916z"/>
		<path id="XMLID_52_" style="fill:#4D4D4D;" d="M473.3,886.48c0,28.505-17.284,45.789-42.693,45.789
			c-25.796,0-40.888-19.477-40.888-44.241c0-26.055,16.639-45.531,42.307-45.531C458.725,842.497,473.3,862.49,473.3,886.48z
			 M410.486,887.641c0,17.025,7.997,29.021,21.153,29.021c13.285,0,20.895-12.64,20.895-29.536c0-15.607-7.481-29.021-21.024-29.021
			C418.224,858.104,410.486,870.745,410.486,887.641z"/>
		<path id="XMLID_55_" style="fill:#4D4D4D;" d="M558.813,926.852c-6.062,2.063-17.542,4.901-29.021,4.901
			c-15.865,0-27.344-3.999-35.341-11.738c-7.996-7.48-12.382-18.831-12.253-31.601c0.129-28.892,21.153-45.401,49.659-45.401
			c11.221,0,19.863,2.192,24.12,4.256l-4.127,15.736c-4.773-2.064-10.706-3.74-20.25-3.74c-16.381,0-28.763,9.286-28.763,28.118
			c0,17.929,11.222,28.505,27.345,28.505c4.514,0,8.125-0.516,9.673-1.29v-18.186h-13.414v-15.349h32.375V926.852z"/>
		<path id="XMLID_57_" style="fill:#4D4D4D;" d="M653.741,886.48c0,28.505-17.284,45.789-42.693,45.789
			c-25.796,0-40.888-19.477-40.888-44.241c0-26.055,16.639-45.531,42.307-45.531C639.166,842.497,653.741,862.49,653.741,886.48z
			 M590.927,887.641c0,17.025,7.997,29.021,21.153,29.021c13.285,0,20.896-12.64,20.896-29.536c0-15.607-7.481-29.021-21.024-29.021
			C598.666,858.104,590.927,870.745,590.927,887.641z"/>
		<path id="XMLID_60_" style="fill:#4D4D4D;" d="M704.43,860.425h-23.346v-16.51h66.814v16.51h-23.733v70.425H704.43V860.425z"/>
		<path id="XMLID_62_" style="fill:#4D4D4D;" d="M810.064,894.091h-31.987v20.637h35.729v16.123h-55.463v-86.935h53.657v16.123
			h-33.923v18.058h31.987V894.091z"/>
		<path id="XMLID_64_" style="fill:#4D4D4D;" d="M873.006,930.85l-7.868-15.736c-3.225-6.062-5.288-10.576-7.739-15.606h-0.258
			c-1.806,5.03-3.998,9.545-6.707,15.606l-7.223,15.736h-22.443l25.151-43.983l-24.248-42.951h22.571l7.61,15.865
			c2.58,5.288,4.515,9.545,6.578,14.446h0.258c2.064-5.547,3.74-9.416,5.934-14.446l7.352-15.865h22.443l-24.507,42.436
			l25.797,44.499H873.006z"/>
		<path id="XMLID_66_" style="fill:#4D4D4D;" d="M923.821,860.425h-23.346v-16.51h66.813v16.51h-23.733v70.425h-19.734V860.425z"/>
	</g>
	<g id="XMLID_5_">
		<path id="XMLID_7_" style="fill:#FBB040;" d="M329.776,994.101c0.138-2.346,0.276-5.244,0.276-7.728v-41.263h3.243v22.011h0.138
			c2.208-4.277,6.279-6.899,12.144-6.899c8.349,0,14.145,6.969,14.145,16.974c0,11.799-7.521,17.664-14.766,17.664
			c-5.313,0-9.246-2.139-11.868-6.762h-0.138l-0.207,6.003H329.776z M333.295,981.337c0,0.759,0.138,1.587,0.276,2.415
			c1.449,5.036,5.727,8.349,10.902,8.349c7.59,0,11.937-6.21,11.937-14.835c0-7.59-4.14-14.353-11.661-14.353
			c-4.83,0-9.453,3.382-11.04,8.901c-0.207,0.828-0.414,1.725-0.414,2.898V981.337z"/>
		<path id="XMLID_11_" style="fill:#FBB040;" d="M407.4,986.028c0,2.898,0.138,5.521,0.276,8.073h-3.036l-0.207-5.865h-0.138
			c-1.656,3.036-5.451,6.624-11.385,6.624c-4.209,0-11.247-2.069-11.247-14.628v-19.251h3.243v18.63
			c0,7.176,2.277,12.352,8.832,12.352c4.83,0,8.349-3.382,9.729-6.693c0.345-1.035,0.69-2.346,0.69-3.657v-20.631h3.243V986.028z"/>
		<path id="XMLID_17_" style="fill:#FBB040;" d="M430.997,989.755c1.794,1.104,4.485,2.276,7.452,2.276
			c5.244,0,7.728-2.829,7.728-6.278c0-3.657-2.208-5.59-6.969-7.521c-5.451-2.07-8.418-5.037-8.418-9.039
			c0-4.761,3.726-8.97,10.212-8.97c3.036,0,5.589,0.896,7.315,2.069l-1.311,2.692c-1.104-0.828-3.243-2.001-6.555-2.001
			c-4.209,0-6.417,2.691-6.417,5.728c0,3.449,2.346,4.968,6.831,6.83c5.382,2.07,8.556,4.762,8.556,9.799
			c0,5.657-4.416,9.453-11.178,9.453c-3.243,0-6.21-0.897-8.418-2.277L430.997,989.755z"/>
		<path id="XMLID_19_" style="fill:#FBB040;" d="M476.191,951.528c0,1.518-1.035,2.829-2.76,2.829c-1.518,0-2.553-1.311-2.553-2.829
			c0-1.518,1.173-2.897,2.691-2.897C475.156,948.631,476.191,949.941,476.191,951.528z M471.913,994.101v-33.12h3.243v33.12H471.913
			z"/>
		<path id="XMLID_22_" style="fill:#FBB040;" d="M500.134,968.916c0-3.035-0.138-5.313-0.276-7.935h3.036l0.276,6.003h0.138
			c1.794-3.726,5.934-6.762,11.385-6.762c3.174,0,11.523,1.587,11.523,14.007v19.872h-3.243v-19.596
			c0-6.003-2.346-11.454-9.177-11.454c-4.692,0-8.625,3.311-9.936,7.59c-0.276,0.828-0.483,1.932-0.483,2.967v20.493h-3.243V968.916
			z"/>
		<path id="XMLID_24_" style="fill:#FBB040;" d="M551.401,977.196c0,10.626,5.796,14.767,12.627,14.767
			c4.83,0,7.314-0.967,9.177-1.863l0.828,2.622c-1.242,0.69-4.623,2.07-10.419,2.07c-9.522,0-15.456-6.9-15.456-16.63
			c0-11.04,6.348-17.94,14.904-17.94c10.833,0,12.903,10.212,12.903,14.973c0,0.897,0,1.449-0.138,2.001H551.401z M572.515,974.574
			c0.069-4.623-1.863-11.661-9.867-11.661c-7.314,0-10.488,6.556-11.04,11.661H572.515z"/>
		<path id="XMLID_27_" style="fill:#FBB040;" d="M596.802,989.755c1.794,1.104,4.485,2.276,7.452,2.276
			c5.244,0,7.728-2.829,7.728-6.278c0-3.657-2.208-5.59-6.969-7.521c-5.451-2.07-8.418-5.037-8.418-9.039
			c0-4.761,3.726-8.97,10.212-8.97c3.036,0,5.589,0.896,7.314,2.069l-1.311,2.692c-1.104-0.828-3.243-2.001-6.555-2.001
			c-4.209,0-6.417,2.691-6.417,5.728c0,3.449,2.346,4.968,6.831,6.83c5.382,2.07,8.556,4.762,8.556,9.799
			c0,5.657-4.416,9.453-11.178,9.453c-3.243,0-6.21-0.897-8.418-2.277L596.802,989.755z"/>
		<path id="XMLID_29_" style="fill:#FBB040;" d="M636.338,989.755c1.794,1.104,4.485,2.276,7.452,2.276
			c5.244,0,7.727-2.829,7.727-6.278c0-3.657-2.208-5.59-6.969-7.521c-5.451-2.07-8.418-5.037-8.418-9.039
			c0-4.761,3.726-8.97,10.212-8.97c3.036,0,5.589,0.896,7.315,2.069l-1.312,2.692c-1.104-0.828-3.243-2.001-6.555-2.001
			c-4.209,0-6.417,2.691-6.417,5.728c0,3.449,2.346,4.968,6.831,6.83c5.382,2.07,8.556,4.762,8.556,9.799
			c0,5.657-4.416,9.453-11.178,9.453c-3.243,0-6.21-0.897-8.418-2.277L636.338,989.755z"/>
		<path id="XMLID_31_" style="fill:#FBB040;" d="M710.717,951.39v9.591h9.453v2.622h-9.453v21.528c0,4.209,1.312,6.899,4.83,6.899
			c1.726,0,2.968-0.275,3.795-0.552l0.414,2.553c-1.104,0.414-2.621,0.76-4.623,0.76c-2.414,0-4.416-0.76-5.657-2.347
			c-1.518-1.725-2.07-4.484-2.07-7.866v-20.976h-5.589v-2.622h5.589v-8.556L710.717,951.39z"/>
		<path id="XMLID_33_" style="fill:#FBB040;" d="M759.363,994.101l-0.483-4.761h-0.206c-1.588,2.553-5.244,5.52-10.558,5.52
			c-6.624,0-9.729-4.691-9.729-9.107c0-7.659,6.762-12.282,20.217-12.144v-0.828c0-3.312-0.621-9.867-8.487-9.798
			c-2.897,0-5.934,0.759-8.28,2.484l-1.034-2.415c2.967-2.001,6.692-2.829,9.659-2.829c9.592,0,11.386,7.176,11.386,13.109v12.903
			c0,2.622,0.138,5.313,0.482,7.866H759.363z M758.604,976.368c-7.245-0.207-16.768,0.897-16.768,8.832c0,4.762,3.175,6.9,6.624,6.9
			c5.521,0,8.625-3.381,9.799-6.624c0.207-0.69,0.345-1.38,0.345-2.001V976.368z"/>
		<path id="XMLID_36_" style="fill:#FBB040;" d="M813.044,960.981c-0.138,2.484-0.275,5.106-0.275,8.556v19.734
			c0,8.487-1.726,12.696-4.485,15.318c-3.036,2.898-7.521,3.933-11.247,3.933c-3.795,0-8.004-0.966-10.488-2.829l1.174-2.69
			c2.276,1.518,5.52,2.76,9.798,2.76c6.969,0,12.006-3.588,12.006-13.386v-4.692h-0.138c-1.726,3.381-5.589,6.417-11.523,6.417
			c-8.349,0-14.214-7.245-14.214-16.284c0-11.522,7.59-17.595,14.904-17.595c6.555,0,9.798,3.588,11.178,6.348h0.138l0.139-5.589
			H813.044z M809.525,973.677c0-1.173-0.138-2.208-0.414-3.174c-1.38-4.003-4.899-7.591-10.281-7.591
			c-7.038,0-11.868,5.797-11.868,14.56c0,7.452,3.934,13.869,11.73,13.869c4.416,0,8.556-2.692,10.212-7.452
			c0.414-1.104,0.621-2.346,0.621-3.52V973.677z"/>
		<path id="XMLID_39_" style="fill:#FBB040;" d="M837.746,945.111h3.243v48.99h-3.243V945.111z"/>
		<path id="XMLID_41_" style="fill:#FBB040;" d="M870.451,951.528c0,1.518-1.035,2.829-2.76,2.829c-1.519,0-2.554-1.311-2.554-2.829
			c0-1.518,1.173-2.897,2.691-2.897C869.416,948.631,870.451,949.941,870.451,951.528z M866.173,994.101v-33.12h3.243v33.12H866.173
			z"/>
		<path id="XMLID_44_" style="fill:#FBB040;" d="M894.394,968.916c0-3.035-0.138-5.313-0.275-7.935h3.035l0.276,6.003h0.138
			c1.794-3.726,5.935-6.762,11.386-6.762c3.174,0,11.522,1.587,11.522,14.007v19.872h-3.243v-19.596
			c0-6.003-2.346-11.454-9.177-11.454c-4.692,0-8.625,3.311-9.936,7.59c-0.276,0.828-0.483,1.932-0.483,2.967v20.493h-3.243V968.916
			z"/>
		<path id="XMLID_46_" style="fill:#FBB040;" d="M945.661,977.196c0,10.626,5.796,14.767,12.627,14.767
			c4.83,0,7.313-0.967,9.177-1.863l0.828,2.622c-1.242,0.69-4.623,2.07-10.419,2.07c-9.523,0-15.456-6.9-15.456-16.63
			c0-11.04,6.348-17.94,14.904-17.94c10.833,0,12.902,10.212,12.902,14.973c0,0.897,0,1.449-0.138,2.001H945.661z M966.775,974.574
			c0.068-4.623-1.863-11.661-9.867-11.661c-7.315,0-10.488,6.556-11.04,11.661H966.775z"/>
	</g>
</g>
</svg>
