<?xml version="1.0" encoding="utf-8"?>
<!-- Generator: Adobe Illustrator 27.5.0, SVG Export Plug-In . SVG Version: 6.00 Build 0)  -->
<svg version="1.1" xmlns="http://www.w3.org/2000/svg" xmlns:xlink="http://www.w3.org/1999/xlink" x="0px" y="0px"
	 viewBox="0 0 800 800" style="enable-background:new 0 0 800 800;" xml:space="preserve">
<g id="Layer_2" style="display:none;">
</g>
<g id="Layer_1">
	<g>
		<g>
			<g>
				<radialGradient id="SVGID_1_" cx="400.0032" cy="329.4146" r="139.7212" gradientUnits="userSpaceOnUse">
					<stop  offset="0" style="stop-color:#FFFFFF"/>
					<stop  offset="0.1978" style="stop-color:#939598"/>
					<stop  offset="0.467" style="stop-color:#58595B"/>
					<stop  offset="1" style="stop-color:#414042"/>
				</radialGradient>
				<path style="fill:url(#SVGID_1_);" d="M562.239,259.385l-3.735-42.019l-42.174-0.75l12.838,11.961
					C418.764,370.641,237.767,442.213,237.767,442.213s211.772-60.895,310.232-196.098L562.239,259.385z"/>
				
					<radialGradient id="SVGID_00000036244692785764511520000007173446650869910672_" cx="421.2639" cy="411.6548" r="109.3011" gradientUnits="userSpaceOnUse">
					<stop  offset="0.0275" style="stop-color:#FFFFFF"/>
					<stop  offset="0.3352" style="stop-color:#47A7DE"/>
					<stop  offset="1" style="stop-color:#232365"/>
				</radialGradient>
				<path style="fill:url(#SVGID_00000036244692785764511520000007173446650869910672_);" d="M538.664,276.12
					c-40.822,48.559-96.524,87.719-152.053,117.226c48.272-21.817,100.307-51.835,143.463-91.939
					c15.397,116.969-119.112,195.88-214.131,124.973c-5.013,2.048-9.865,3.975-14.52,5.777
					c25.759,21.518,58.885,34.498,94.996,34.498C494.986,466.654,566.958,371.475,538.664,276.12z"/>
				<g>
					
						<radialGradient id="SVGID_00000064338724094281028170000002664923437327511947_" cx="422.292" cy="278.5518" r="30.6715" gradientUnits="userSpaceOnUse">
						<stop  offset="0.0275" style="stop-color:#FFFFFF"/>
						<stop  offset="0.3352" style="stop-color:#47A7DE"/>
						<stop  offset="1" style="stop-color:#232365"/>
					</radialGradient>
					<path style="fill:url(#SVGID_00000064338724094281028170000002664923437327511947_);" d="M403.604,317.696
						c13.028-8.522,25.655-17.274,37.375-26.023v-52.265h-37.375V317.696z"/>
					
						<radialGradient id="SVGID_00000098189965710888846110000001477163427429307292_" cx="365.3721" cy="312.4026" r="31.1088" gradientUnits="userSpaceOnUse">
						<stop  offset="0" style="stop-color:#FFFFFF"/>
						<stop  offset="0.1978" style="stop-color:#939598"/>
						<stop  offset="0.467" style="stop-color:#58595B"/>
						<stop  offset="1" style="stop-color:#414042"/>
					</radialGradient>
					<path style="fill:url(#SVGID_00000098189965710888846110000001477163427429307292_);" d="M384.055,272.572h-37.366v79.661
						c12.253-6.911,24.85-14.327,37.366-22.085V272.572z"/>
					
						<radialGradient id="SVGID_00000115507113034388305960000004222281120360487348_" cx="311.4917" cy="341.9893" r="30.1461" gradientUnits="userSpaceOnUse">
						<stop  offset="0.0275" style="stop-color:#FFFFFF"/>
						<stop  offset="0.3352" style="stop-color:#47A7DE"/>
						<stop  offset="1" style="stop-color:#232365"/>
					</radialGradient>
					<path style="fill:url(#SVGID_00000115507113034388305960000004222281120360487348_);" d="M330.175,303.668h-37.366v76.642
						c11.283-5.32,23.948-11.739,37.366-18.977V303.668z"/>
				</g>
				
					<radialGradient id="SVGID_00000085234948119221324410000009352081580249088901_" cx="359.6447" cy="246.1801" r="148.4874" gradientUnits="userSpaceOnUse">
					<stop  offset="0.0275" style="stop-color:#FFFFFF"/>
					<stop  offset="0.3352" style="stop-color:#47A7DE"/>
					<stop  offset="1" style="stop-color:#232365"/>
				</radialGradient>
				<path style="fill:url(#SVGID_00000085234948119221324410000009352081580249088901_);" d="M396.419,169.892
					c-123.573,0-193.367,143.455-116.148,240.56c0,0,0.002,0.004,0.004,0.004c3.998-2.037,10.947-5.665,12.243-6.359h-0.002
					c38.51-20.378,108.45-61.092,156.439-104.827c-49.897,37.483-118.151,76.344-163.051,96.133
					c-62.22-88.883,1.644-211.954,110.515-211.954c45.098,0,85.069,22.285,109.56,56.396c3.024-3.537,6.01-7.118,8.945-10.75
					C487.82,193.166,444.787,169.892,396.419,169.892z"/>
			</g>
			<g>
				<g>
					
						<linearGradient id="SVGID_00000108269963273898576570000014170078821290421160_" gradientUnits="userSpaceOnUse" x1="429.673" y1="138.8177" x2="414.8972" y2="519.5609">
						<stop  offset="0" style="stop-color:#FFFFFF"/>
						<stop  offset="0.1978" style="stop-color:#939598"/>
						<stop  offset="0.467" style="stop-color:#58595B"/>
						<stop  offset="1" style="stop-color:#414042"/>
					</linearGradient>
					<path style="fill:url(#SVGID_00000108269963273898576570000014170078821290421160_);" d="M284.78,423.188
						c61.35-31.089,170.872-95.847,246.409-193.04l1.436-1.847l-9.67-9.007l33.203,0.589l2.943,33.084l-11.47-10.689l-1.703,2.332
						C495.377,314.03,414.104,363.389,354.83,392.57C328.682,405.444,304.41,415.627,284.78,423.188z"/>
				</g>
				<g>
					
						<linearGradient id="SVGID_00000176003710923783022000000009574569818833416868_" gradientUnits="userSpaceOnUse" x1="425.269" y1="151.254" x2="423.9315" y2="493.0542">
						<stop  offset="0.0275" style="stop-color:#FFFFFF"/>
						<stop  offset="0.3352" style="stop-color:#47A7DE"/>
						<stop  offset="1" style="stop-color:#232365"/>
					</linearGradient>
					<path style="fill:url(#SVGID_00000176003710923783022000000009574569818833416868_);" d="M396.419,464.097
						c-32.576,0-64.351-11.034-89.966-31.157c3.02-1.189,6.074-2.41,9.125-3.651c23.76,17.37,51.344,26.538,79.868,26.538
						c39.475-0.002,78.794-17.959,105.169-48.037c25.815-29.436,37.175-67.335,31.991-106.718l-0.648-4.911l-3.63,3.372
						c-21.025,19.543-45.38,37.813-72.835,54.658c32.221-22.707,59.946-47.262,81.997-72.756
						c11.313,43.072,2.592,87.982-24.228,123.92C485.397,442.685,442.813,464.097,396.419,464.097z"/>
				</g>
				<g>
					<g>
						
							<linearGradient id="SVGID_00000046302888813862938240000006861031173608373922_" gradientUnits="userSpaceOnUse" x1="427.2382" y1="138.7222" x2="412.4623" y2="519.4686">
							<stop  offset="0.0275" style="stop-color:#FFFFFF"/>
							<stop  offset="0.3352" style="stop-color:#47A7DE"/>
							<stop  offset="1" style="stop-color:#232365"/>
						</linearGradient>
						<path style="fill:url(#SVGID_00000046302888813862938240000006861031173608373922_);" d="M406.163,241.964h32.258v48.423
							c-9.898,7.359-20.725,14.933-32.258,22.565V241.964z"/>
					</g>
					<g>
						
							<linearGradient id="SVGID_00000003092106939061354170000012538260395621994897_" gradientUnits="userSpaceOnUse" x1="371.7902" y1="136.5701" x2="357.0142" y2="517.3181">
							<stop  offset="0" style="stop-color:#FFFFFF"/>
							<stop  offset="0.1978" style="stop-color:#939598"/>
							<stop  offset="0.467" style="stop-color:#58595B"/>
							<stop  offset="1" style="stop-color:#414042"/>
						</linearGradient>
						<path style="fill:url(#SVGID_00000003092106939061354170000012538260395621994897_);" d="M349.245,275.131h32.256v53.592
							c-10.426,6.442-21.254,12.859-32.256,19.122V275.131z"/>
					</g>
					<g>
						
							<linearGradient id="SVGID_00000043428622993620346820000000605521470947062719_" gradientUnits="userSpaceOnUse" x1="319.1941" y1="134.5282" x2="304.4182" y2="515.275">
							<stop  offset="0.0275" style="stop-color:#FFFFFF"/>
							<stop  offset="0.3352" style="stop-color:#47A7DE"/>
							<stop  offset="1" style="stop-color:#232365"/>
						</linearGradient>
						<path style="fill:url(#SVGID_00000043428622993620346820000000605521470947062719_);" d="M295.364,306.224h32.254v53.582
							c-11.364,6.105-22.19,11.628-32.254,16.455V306.224z"/>
					</g>
				</g>
				<g>
					
						<linearGradient id="SVGID_00000160909283331519152610000015272228366376396973_" gradientUnits="userSpaceOnUse" x1="381.5964" y1="151.0821" x2="380.259" y2="492.883">
						<stop  offset="0.0275" style="stop-color:#FFFFFF"/>
						<stop  offset="0.3352" style="stop-color:#47A7DE"/>
						<stop  offset="1" style="stop-color:#232365"/>
					</linearGradient>
					<path style="fill:url(#SVGID_00000160909283331519152610000015272228366376396973_);" d="M280.985,407.219
						c-33.885-43.851-39.948-101.954-15.731-152.152c24.585-50.962,74.845-82.619,131.165-82.619
						c45.454,0,87.344,20.604,115.247,56.6c-1.783,2.192-3.621,4.4-5.544,6.679c-25.951-34.397-66.714-54.835-109.703-54.835
						c-52.063,0-97.549,27.667-121.68,74.008c-24.119,46.329-20.729,99.402,9.068,141.97l1.205,1.722l1.921-0.85
						c26.013-11.463,63.154-30.896,100.593-53.908c-40.812,27.993-80.896,49.901-96.207,58.002
						C290.21,402.431,284.973,405.167,280.985,407.219z"/>
				</g>
			</g>
			<g>
				<g>
					
						<linearGradient id="SVGID_00000106866814458562713540000003791951334756402845_" gradientUnits="userSpaceOnUse" x1="524.5756" y1="306.3478" x2="523.7783" y2="185.9671">
						<stop  offset="0" style="stop-color:#FFFFFF"/>
						<stop  offset="0.1978" style="stop-color:#939598"/>
						<stop  offset="0.467" style="stop-color:#58595B"/>
						<stop  offset="1" style="stop-color:#414042"/>
					</linearGradient>
					<path style="fill:url(#SVGID_00000106866814458562713540000003791951334756402845_);" d="M531.188,230.147
						c-13.02,16.753-27.061,32.518-41.683,47.339c11.475-2.126,22.978-4.122,34.499-6c7.776-8.6,15.134-17.552,21.923-26.876
						l1.703-2.332l11.47,10.689l-2.943-33.084l-33.203-0.589l9.67,9.007L531.188,230.147z"/>
				</g>
				<g>
					<g>
						
							<linearGradient id="SVGID_00000065755511439409886110000003847299612096779956_" gradientUnits="userSpaceOnUse" x1="435.1445" y1="369.3736" x2="406.7323" y2="146.6131">
							<stop  offset="0.0275" style="stop-color:#FFFFFF"/>
							<stop  offset="0.3352" style="stop-color:#47A7DE"/>
							<stop  offset="1" style="stop-color:#232365"/>
						</linearGradient>
						<path style="fill:url(#SVGID_00000065755511439409886110000003847299612096779956_);" d="M438.421,287.804v-45.84h-32.258
							v53.284C416.892,292.657,427.645,290.167,438.421,287.804z"/>
					</g>
					<g>
						
							<linearGradient id="SVGID_00000133518312098054971920000017058780484278063526_" gradientUnits="userSpaceOnUse" x1="376.1223" y1="376.9035" x2="347.7103" y2="154.144">
							<stop  offset="0" style="stop-color:#FFFFFF"/>
							<stop  offset="0.1978" style="stop-color:#939598"/>
							<stop  offset="0.467" style="stop-color:#58595B"/>
							<stop  offset="1" style="stop-color:#414042"/>
						</linearGradient>
						<path style="fill:url(#SVGID_00000133518312098054971920000017058780484278063526_);" d="M381.501,301.406v-26.275h-32.256
							v34.99C359.968,307.097,370.722,304.197,381.501,301.406z"/>
					</g>
					<g>
						
							<linearGradient id="SVGID_00000061470671958378997380000000455751074954021258_" gradientUnits="userSpaceOnUse" x1="320.0669" y1="384.0497" x2="291.6559" y2="161.2984">
							<stop  offset="0.0275" style="stop-color:#FFFFFF"/>
							<stop  offset="0.3352" style="stop-color:#47A7DE"/>
							<stop  offset="1" style="stop-color:#232365"/>
						</linearGradient>
						<path style="fill:url(#SVGID_00000061470671958378997380000000455751074954021258_);" d="M327.618,316.408v-10.184h-32.254
							v21.18C306.049,323.274,316.869,319.653,327.618,316.408z"/>
					</g>
				</g>
				<g>
					
						<linearGradient id="SVGID_00000095336600413482358170000010753430927836063414_" gradientUnits="userSpaceOnUse" x1="392.0495" y1="380.7467" x2="367.3007" y2="147.3038">
						<stop  offset="0.0275" style="stop-color:#FFFFFF"/>
						<stop  offset="0.3352" style="stop-color:#47A7DE"/>
						<stop  offset="1" style="stop-color:#232365"/>
					</linearGradient>
					<path style="fill:url(#SVGID_00000095336600413482358170000010753430927836063414_);" d="M261.027,343.016
						c-5.43-29.28-0.953-59.946,13.712-88.117c24.13-46.341,69.616-74.008,121.68-74.008c42.989,0,83.752,20.438,109.703,54.835
						c1.923-2.279,3.761-4.487,5.544-6.679c-27.903-35.996-69.793-56.6-115.247-56.6c-56.32,0-106.579,31.657-131.165,82.619
						c-14.23,29.494-17.991,61.716-11.811,92.174C255.944,345.79,258.473,344.382,261.027,343.016z"/>
				</g>
			</g>
		</g>
		<g>
			<text transform="matrix(1 0 0 1 161.8516 563.0752)"><tspan x="0" y="0" style="font-family:'Exo-Medium'; font-size:83.7971px;">GLOBAL</tspan><tspan x="287.672" y="0" style="font-family:'Exo-Bold'; font-size:83.7971px;"> SEO</tspan></text>
			
				<text transform="matrix(1 0 0 1 225.6641 619.6338)" style="font-family:'MyriadPro-Regular'; font-size:41.8985px; letter-spacing:8;">YOUR SLOGAN</text>
		</g>
	</g>
</g>
</svg>
